<?xml version="1.0" encoding="utf-8"?>
<!-- Generator: Adobe Illustrator 24.0.2, SVG Export Plug-In . SVG Version: 6.00 Build 0)  -->
<svg version="1.1" id="Layer_1" xmlns="http://www.w3.org/2000/svg" xmlns:xlink="http://www.w3.org/1999/xlink" x="0px" y="0px"
	 viewBox="0 0 800 800" style="enable-background:new 0 0 800 800;" xml:space="preserve">
<style type="text/css">
	.st0{fill:url(#SVGID_1_);}
	.st1{opacity:0.51;}
	.st2{fill:none;stroke:#B1E5C8;stroke-width:36;stroke-miterlimit:10;}
	.st3{fill:none;stroke:#B1E5C8;stroke-width:37;stroke-miterlimit:10;stroke-dasharray:35.7723,35.7723;}
	.st4{opacity:0.41;}
	.st5{fill:none;stroke:#C3EDC3;stroke-width:36;stroke-miterlimit:10;}
	.st6{fill:none;stroke:#C3EDC3;stroke-width:37;stroke-miterlimit:10;stroke-dasharray:34.5393,34.5393;}
	.st7{fill:#3D3D3D;}
	.st8{fill:#F0F7F0;}
	.st9{fill:#A5CEAD;}
	.st10{fill:#F0FCF0;}
	.st11{fill:#FF4848;}
	.st12{fill:#F4DB4A;}
	.st13{fill:#18D318;}
	.st14{fill:#E5C9A5;}
	.st15{fill:#166D2A;}
	.st16{fill:#F7D9AD;}
	.st17{fill:#197F34;}
	.st18{fill:none;stroke:#3D3D3D;stroke-miterlimit:10;}
	.st19{fill:none;stroke:#24C633;stroke-width:3;stroke-miterlimit:10;}
	.st20{fill:none;stroke:#3D3D3D;stroke-width:0.25;stroke-miterlimit:10;}
	.st21{fill:none;stroke:#FF4848;stroke-width:0.5;stroke-miterlimit:10;}
	.st22{fill:none;stroke:#F4DB4A;stroke-miterlimit:10;}
	.st23{fill:#898989;}
	.st24{fill:#084208;}
	.st25{fill:none;stroke:#FF4848;stroke-width:6;stroke-miterlimit:10;}
</style>
<linearGradient id="SVGID_1_" gradientUnits="userSpaceOnUse" x1="0" y1="400" x2="800" y2="400">
	<stop  offset="0" style="stop-color:#FFFFFF"/>
	<stop  offset="0.4728" style="stop-color:#FDFEFE;stop-opacity:0.7636"/>
	<stop  offset="0.6431" style="stop-color:#F6FCF9;stop-opacity:0.6785"/>
	<stop  offset="0.7644" style="stop-color:#EBF8F1;stop-opacity:0.6178"/>
	<stop  offset="0.8625" style="stop-color:#DAF3E5;stop-opacity:0.5687"/>
	<stop  offset="0.9456" style="stop-color:#C4EBD5;stop-opacity:0.5272"/>
	<stop  offset="1" style="stop-color:#B1E5C8;stop-opacity:0.5"/>
</linearGradient>
<circle class="st0" cx="400" cy="400" r="400">
	<animateTransform  accumulate="none" additive="replace" attributeName="transform" attributeType="XML" calcMode="linear" dur="20s" fill="remove" from="0 400 400" repeatCount="indefinite" restart="always" to="360 400 400" type="rotate">
		</animateTransform>
</circle>
<g class="st1">
	<circle class="st2" cx="387.4" cy="399.2" r="194.7"/>
	<g>
		<circle class="st3" cx="387.4" cy="399.2" r="205"/>
	</g>

	<animateTransform  accumulate="none" additive="replace" attributeName="transform" attributeType="XML" calcMode="linear" dur="40s" fill="remove" from="0 387.4 399.2" repeatCount="indefinite" restart="always" to="360 387.4 399.2" type="rotate">
		</animateTransform>
</g>
<g class="st4">
	<circle class="st5" cx="234.5" cy="261.6" r="164.8"/>
	<g>
		<circle class="st6" cx="234.5" cy="261.6" r="173.4"/>
	</g>

	<animateTransform  accumulate="none" additive="replace" attributeName="transform" attributeType="XML" calcMode="linear" dur="20s" fill="remove" from="0 234.5 261.6" repeatCount="indefinite" restart="always" to="360 234.5 261.6" type="rotate">
			</animateTransform>
</g>
<rect y="226" class="st7" width="800" height="309"/>
<rect x="24.7" y="233.4" class="st8" width="752.6" height="294.3"/>
<rect x="53.2" y="280.7" class="st9" width="223.1" height="223.1"/>
<rect x="47.2" y="274.7" class="st10" width="224" height="224"/>
<rect x="47.2" y="261.6" class="st7" width="229.1" height="19"/>
<circle class="st11" cx="225.5" cy="271.1" r="4.4"/>
<circle class="st12" cx="243.5" cy="271.1" r="4.4"/>
<circle class="st13" cx="261.5" cy="271.1" r="4.4"/>
<g>
	<path class="st14" d="M504.4,837h-3.8c-6.4,0-11.6-5.2-11.6-11.6v-72.8c0-6.4,5.2-11.6,11.6-11.6h3.8c6.4,0,11.6,5.2,11.6,11.6
		v72.8C516,831.8,510.8,837,504.4,837z"/>
	<path class="st14" d="M328.4,837h-3.8c-6.4,0-11.6-5.2-11.6-11.6v-72.8c0-6.4,5.2-11.6,11.6-11.6h3.8c6.4,0,11.6,5.2,11.6,11.6
		v72.8C340,831.8,334.8,837,328.4,837z"/>
	<path class="st15" d="M517.4,757.2l-49,5.2l-6.7-62.6l19.2-2c16.5-1.8,31.3,10.2,33,26.7L517.4,757.2z"/>
	<path class="st15" d="M309.8,757.2l49,5.2l6.7-62.6l-19.2-2c-16.5-1.8-31.3,10.2-33,26.7L309.8,757.2z"/>
	<ellipse class="st14" cx="352.5" cy="603.5" rx="8.5" ry="14.5"/>
	<path class="st14" d="M416.4,687h-3.8c-6.4,0-11.6-5.2-11.6-11.6v-19.8c0-6.4,5.2-11.6,11.6-11.6h3.8c6.4,0,11.6,5.2,11.6,11.6
		v19.8C428,681.8,422.8,687,416.4,687z"/>
	<ellipse class="st14" cx="475.5" cy="603.5" rx="8.5" ry="14.5"/>
	<g>
		<ellipse class="st16" cx="414" cy="589" rx="61" ry="65"/>
	</g>
	<path class="st17" d="M492,802H337v-52.5c0-42.8,34.7-77.5,77.5-77.5h0c42.8,0,77.5,34.7,77.5,77.5V802z"/>
	<path d="M474.5,537.2c0,0-79.1-53.9-114.7,10c0,0-28,78.8,39.5,99.8c0,0,12.5,4,12.5,7c0,0,3.9-8,15.4-7c0,0,55-6,48.2-79.8
		c0,0-1-14-6.7-14C468.7,553.2,476.4,546.2,474.5,537.2z"/>
	<path class="st17" d="M492,802H337v-52.5c0-42.8,34.7-77.5,77.5-77.5h0c42.8,0,77.5,34.7,77.5,77.5V802z"/>
</g>
<rect x="293.6" y="280.7" class="st9" width="223.1" height="223.1"/>
<rect x="287.6" y="274.7" class="st10" width="224" height="224"/>
<rect x="287.6" y="261.6" class="st7" width="229.1" height="19"/>
<circle class="st11" cx="465.8" cy="271.1" r="4.4"/>
<circle class="st12" cx="483.8" cy="271.1" r="4.4"/>
<circle class="st13" cx="501.8" cy="271.1" r="4.4"/>
<rect x="533.9" y="280.7" class="st9" width="223.1" height="223.1"/>
<rect x="527.9" y="274.7" class="st10" width="224" height="224"/>
<rect x="527.9" y="261.6" class="st7" width="229.1" height="19"/>
<circle class="st11" cx="706.2" cy="271.1" r="4.4"/>
<circle class="st12" cx="724.2" cy="271.1" r="4.4"/>
<circle class="st13" cx="742.2" cy="271.1" r="4.4"/>
<polyline class="st18" points="60.5,479.3 118.8,439.8 118.8,456.1 172,438.1 183.2,441.5 239,324.8 252.7,324.8 265.6,287.9 "/>
<path class="st19" d="M119.7,441.5L119.7,441.5c-1.9,0-3.4-1.5-3.4-3.4l0,0c0-1.9,1.5-3.4,3.4-3.4h0c1.9,0,3.4,1.5,3.4,3.4l0,0
	C123.1,440,121.6,441.5,119.7,441.5z"/>
<path class="st19" d="M183.2,444.1L183.2,444.1c-1.9,0-3.4-1.5-3.4-3.4l0,0c0-1.9,1.5-3.4,3.4-3.4h0c1.9,0,3.4,1.5,3.4,3.4l0,0
	C186.6,442.5,185.1,444.1,183.2,444.1z"/>
<path class="st19" d="M241.9,327.5L241.9,327.5c-1,1.6-3.1,2.1-4.7,1.1h0c-1.6-1-2.1-3.1-1.1-4.7v0c1-1.6,3.1-2.1,4.7-1.1l0,0
	C242.4,323.7,242.9,325.9,241.9,327.5z"/>
<path class="st19" d="M268.4,289.8L268.4,289.8c-1,1.6-3.1,2.1-4.7,1.1l0,0c-1.6-1-2.1-3.1-1.1-4.7h0c1-1.6,3.1-2.1,4.7-1.1l0,0
	C268.9,286.1,269.4,288.2,268.4,289.8z"/>
<g>
	<polygon class="st11" points="299.3,313.9 312,313.9 305.3,303.8 	"/>

		<rect x="298.9" y="316.2" transform="matrix(6.123234e-17 -1 1 6.123234e-17 -12.9219 623.7993)" class="st11" width="13" height="4.3"/>
</g>
<g>
	<polygon class="st11" points="321,319.9 308.3,319.9 315,329.9 	"/>

		<rect x="308.3" y="313.2" transform="matrix(-1.836970e-16 1 -1 -1.836970e-16 630.1625 0.5616)" class="st11" width="13" height="4.3"/>
</g>
<rect x="332.1" y="296" class="st20" width="162.2" height="39.5"/>
<g>
	<polygon class="st11" points="299.3,365.4 312,365.4 305.3,355.3 	"/>

		<rect x="298.9" y="367.7" transform="matrix(6.123234e-17 -1 1 6.123234e-17 -64.4251 675.3024)" class="st11" width="13" height="4.3"/>
</g>
<g>
	<polygon class="st11" points="308.3,370.4 321,370.4 314.3,360.4 	"/>

		<rect x="308" y="372.7" transform="matrix(6.123234e-17 -1 1 6.123234e-17 -60.4127 689.3457)" class="st11" width="13" height="4.3"/>
</g>
<rect x="332.1" y="347.5" class="st20" width="162.2" height="39.5"/>
<g>
	<polygon class="st11" points="312,417.9 299.3,417.9 305.9,427.9 	"/>

		<rect x="299.3" y="411.2" transform="matrix(-1.836970e-16 1 -1 -1.836970e-16 719.1255 107.5803)" class="st11" width="13" height="4.3"/>
</g>
<g>
	<polygon class="st11" points="321,422.9 308.3,422.9 315,432.9 	"/>

		<rect x="308.3" y="416.2" transform="matrix(-1.836970e-16 1 -1 -1.836970e-16 733.1688 103.5679)" class="st11" width="13" height="4.3"/>
</g>
<rect x="332.1" y="399" class="st20" width="162.2" height="39.5"/>
<g>
	<polygon class="st11" points="312,469.4 299.3,469.4 305.9,479.4 	"/>

		<rect x="299.3" y="462.7" transform="matrix(-1.836970e-16 1 -1 -1.836970e-16 770.6287 159.0834)" class="st11" width="13" height="4.3"/>
</g>
<g>
	<polygon class="st11" points="308.3,473.4 321,473.4 314.3,463.4 	"/>

		<rect x="308" y="475.7" transform="matrix(6.123234e-17 -1 1 6.123234e-17 -163.419 792.352)" class="st11" width="13" height="4.3"/>
</g>
<rect x="332.1" y="450.5" class="st20" width="162.2" height="39.5"/>
<rect x="440.3" y="368" class="st13" width="7.7" height="13.8"/>
<rect x="448.9" y="365.9" class="st13" width="7.7" height="16"/>
<rect x="457.5" y="362.7" class="st13" width="7.7" height="19.2"/>
<rect x="466" y="359" class="st13" width="7.7" height="22.9"/>
<rect x="474.6" y="355.2" class="st13" width="7.7" height="26.6"/>
<rect x="440.3" y="406.7" class="st13" width="7.7" height="26.6"/>
<rect x="448.9" y="410.2" class="st13" width="7.7" height="23.2"/>
<rect x="457.5" y="414.2" class="st13" width="7.7" height="19.2"/>
<rect x="466" y="418.8" class="st13" width="7.7" height="14.6"/>
<rect x="474.6" y="425.6" class="st13" width="7.7" height="7.7"/>
<rect x="440.3" y="305.5" class="st13" width="7.7" height="24.9"/>
<rect x="448.9" y="314.4" class="st13" width="7.7" height="16"/>
<rect x="457.5" y="299.4" class="st13" width="7.7" height="30.9"/>
<rect x="466" y="307.5" class="st13" width="7.7" height="22.9"/>
<rect x="474.6" y="303.7" class="st13" width="7.7" height="26.6"/>
<rect x="440.3" y="450.6" class="st13" width="7.7" height="4.3"/>
<rect x="448.9" y="461.7" class="st13" width="7.7" height="23.2"/>
<rect x="457.5" y="440.3" class="st13" width="7.7" height="14.6"/>
<rect x="466" y="459.1" class="st13" width="7.7" height="25.8"/>
<rect x="474.6" y="452.2" class="st13" width="7.7" height="32.6"/>
<polyline class="st21" points="66,482.3 159.6,423.9 229.1,429.1 258.3,352.7 266,352.7 "/>
<polyline class="st22" points="60.5,487.9 166,450.1 220.1,447.5 237.3,381.4 263,378.8 "/>
<rect x="336" y="299.9" class="st23" width="36.1" height="3.4"/>
<rect x="336" y="305" class="st23" width="27.9" height="3.4"/>
<rect x="336" y="309.3" class="st23" width="30.5" height="3.4"/>
<rect x="336" y="323.1" class="st23" width="30.5" height="3.4"/>
<rect x="336" y="350.5" class="st23" width="36.1" height="3.4"/>
<rect x="336" y="359.1" class="st23" width="12.4" height="3.4"/>
<rect x="336" y="373.7" class="st23" width="20.2" height="3.4"/>
<rect x="336" y="354.8" class="st23" width="14.2" height="3.4"/>
<rect x="336" y="402.9" class="st23" width="20.2" height="3.4"/>
<rect x="336" y="407.2" class="st23" width="20.2" height="3.4"/>
<rect x="336" y="428.6" class="st23" width="51.1" height="3.4"/>
<rect x="336" y="454.4" class="st23" width="35.6" height="3.4"/>
<rect x="336" y="459.5" class="st23" width="51.1" height="3.4"/>
<rect x="336" y="464.7" class="st23" width="48.5" height="3.4"/>
<rect x="336" y="441.6" class="st23" width="17.6" height="3.4"/>
<g>
	<rect x="569.9" y="441.1" class="st24" width="13.7" height="33.5"/>
	<rect x="587.1" y="428.2" class="st24" width="13.7" height="46.4"/>
	<rect x="604.2" y="411.9" class="st24" width="13.7" height="62.7"/>
	<rect x="621.4" y="397.3" class="st24" width="13.7" height="77.3"/>
	<rect x="638.6" y="387" class="st24" width="13.7" height="87.6"/>
	<rect x="655.7" y="375.8" class="st24" width="13.7" height="98.7"/>
	<rect x="672.9" y="360.4" class="st24" width="13.7" height="114.2"/>
	<rect x="690.1" y="347.5" class="st24" width="13.7" height="127"/>
	<rect x="707.3" y="325.2" class="st24" width="13.7" height="149.4"/>
</g>
<g>
	<g>
		<polygon class="st11" points="718.5,313.4 694.5,308.5 704.4,324.7 		"/>
		<polygon class="st11" points="718.5,313.4 713.9,340.4 704.4,324.7 		"/>
	</g>
	<line class="st25" x1="710.3" y1="320.1" x2="561.3" y2="438.5"/>
</g>
</svg>
